HIERARCHY
ROOT Hips
{
	OFFSET 0.053599 88.859886 3.107447
	CHANNELS 6 Xposition Yposition Zposition Zrotation Yrotation Xrotation 
	JOINT Spine
	{
		OFFSET -0.000000 8.814246 -2.080107
		CHANNELS 3 Zrotation Yrotation Xrotation
		JOINT Spine1
		{
			OFFSET 0.000000 8.844141 0.000000
			CHANNELS 3 Zrotation Yrotation Xrotation
			JOINT Spine2
			{
				OFFSET -0.000000 11.682268 0.000000
				CHANNELS 3 Zrotation Yrotation Xrotation
				JOINT Spine3
				{
					OFFSET 0.000000 11.746700 0.000000
					CHANNELS 3 Zrotation Yrotation Xrotation
					JOINT Neck
					{
						OFFSET -0.000000 17.658264 -0.000000
						CHANNELS 3 Zrotation Yrotation Xrotation
						JOINT Neck1
						{
							OFFSET -0.000000 5.101515 -0.000000
							CHANNELS 3 Zrotation Yrotation Xrotation
							JOINT Head
							{
								OFFSET 0.000000 5.101515 0.000000
								CHANNELS 3 Zrotation Yrotation Xrotation
								JOINT HeadEnd
								{
									OFFSET 0.000000 11.655085 0.000000
									CHANNELS 3 Zrotation Yrotation Xrotation
									End Site
									{
										OFFSET 0.000000 0.000000 0.000000
									}
								}
							}
						}
					}
					JOINT RightShoulder
					{
						OFFSET -2.625389 11.175210 0.000000
						CHANNELS 3 Zrotation Yrotation Xrotation
						JOINT RightArm
						{
							OFFSET -0.000000 10.434715 -0.000000
							CHANNELS 3 Zrotation Yrotation Xrotation
							JOINT RightForeArm
							{
								OFFSET -0.000000 29.628420 0.000000
								CHANNELS 3 Zrotation Yrotation Xrotation
								JOINT RightHand
								{
									OFFSET -0.000000 22.857611 0.000000
									CHANNELS 3 Zrotation Yrotation Xrotation
									JOINT RightHandThumb1
									{
										OFFSET -2.867323 3.959563 2.944291
										CHANNELS 3 Zrotation Yrotation Xrotation
										JOINT RightHandThumb2
										{
											OFFSET 0.000000 3.350399 0.000000
											CHANNELS 3 Zrotation Yrotation Xrotation
											JOINT RightHandThumb3
											{
												OFFSET 0.000000 3.756509 -0.000000
												CHANNELS 3 Zrotation Yrotation Xrotation
												JOINT RightHandThumb4
												{
													OFFSET 0.000000 3.147345 0.000000
													CHANNELS 3 Zrotation Yrotation Xrotation
													End Site
													{
														OFFSET 0.000000 0.000000 0.000000
													}
												}
											}
										}
									}
									JOINT RightHandIndex1
									{
										OFFSET -0.086752 10.030893 2.345280
										CHANNELS 3 Zrotation Yrotation Xrotation
										JOINT RightHandIndex2
										{
											OFFSET -0.000000 4.061090 0.000000
											CHANNELS 3 Zrotation Yrotation Xrotation
											JOINT RightHandIndex3
											{
												OFFSET -0.000000 3.248873 0.000000
												CHANNELS 3 Zrotation Yrotation Xrotation
												JOINT RightHandIndex4
												{
													OFFSET 0.000000 2.639709 -0.000000
													CHANNELS 3 Zrotation Yrotation Xrotation
													End Site
													{
														OFFSET 0.000000 0.000000 0.000000
													}
												}
											}
										}
									}
									JOINT RightHandMiddle1
									{
										OFFSET 0.104102 9.502952 0.006768
										CHANNELS 3 Zrotation Yrotation Xrotation
										JOINT RightHandMiddle2
										{
											OFFSET 0.000000 4.568727 0.000000
											CHANNELS 3 Zrotation Yrotation Xrotation
											JOINT RightHandMiddle3
											{
												OFFSET 0.000000 3.654981 -0.000000
												CHANNELS 3 Zrotation Yrotation Xrotation
												JOINT RightHandMiddle4
												{
													OFFSET -0.000000 2.741236 -0.000000
													CHANNELS 3 Zrotation Yrotation Xrotation
													End Site
													{
														OFFSET 0.000000 0.000000 0.000000
													}
												}
											}
										}
									}
									JOINT RightHandRing1
									{
										OFFSET 0.086752 8.921708 -2.267442
										CHANNELS 3 Zrotation Yrotation Xrotation
										JOINT RightHandRing2
										{
											OFFSET -0.000000 4.061090 0.000000
											CHANNELS 3 Zrotation Yrotation Xrotation
											JOINT RightHandRing3
											{
												OFFSET 0.000000 3.654981 -0.000000
												CHANNELS 3 Zrotation Yrotation Xrotation
												JOINT RightHandRing4
												{
													OFFSET 0.000000 2.741236 -0.000000
													CHANNELS 3 Zrotation Yrotation Xrotation
													End Site
													{
														OFFSET 0.000000 0.000000 0.000000
													}
												}
											}
										}
									}
									JOINT RightHandPinky1
									{
										OFFSET -0.173504 7.976997 -4.467199
										CHANNELS 3 Zrotation Yrotation Xrotation
										JOINT RightHandPinky2
										{
											OFFSET 0.000000 3.350399 -0.000000
											CHANNELS 3 Zrotation Yrotation Xrotation
											JOINT RightHandPinky3
											{
												OFFSET -0.000000 2.842763 0.000000
												CHANNELS 3 Zrotation Yrotation Xrotation
												JOINT RightHandPinky4
												{
													OFFSET -0.000000 2.639709 0.000000
													CHANNELS 3 Zrotation Yrotation Xrotation
													End Site
													{
														OFFSET 0.000000 0.000000 0.000000
													}
												}
											}
										}
									}
									JOINT RightForeArmEnd
									{
										OFFSET 0.000000 0.000000 0.000000
										CHANNELS 3 Zrotation Yrotation Xrotation
										End Site
										{
											OFFSET 0.000000 0.000000 0.000000
										}
									}
								}
								JOINT RightArmEnd
								{
									OFFSET 0.000000 0.000000 0.000000
									CHANNELS 3 Zrotation Yrotation Xrotation
									End Site
									{
										OFFSET 0.000000 0.000000 0.000000
									}
								}
							}
						}
					}
					JOINT LeftShoulder
					{
						OFFSET 2.625389 11.175210 0.000000
						CHANNELS 3 Zrotation Yrotation Xrotation
						JOINT LeftArm
						{
							OFFSET 0.000000 10.813635 -0.000000
							CHANNELS 3 Zrotation Yrotation Xrotation
							JOINT LeftForeArm
							{
								OFFSET 0.000000 28.724781 0.000000
								CHANNELS 3 Zrotation Yrotation Xrotation
								JOINT LeftHand
								{
									OFFSET 0.644384 25.716167 -0.328871
									CHANNELS 3 Zrotation Yrotation Xrotation
									JOINT LeftHandThumb1
									{
										OFFSET 2.867323 3.959563 2.944291
										CHANNELS 3 Zrotation Yrotation Xrotation
										JOINT LeftHandThumb2
										{
											OFFSET 0.000000 3.350399 0.000000
											CHANNELS 3 Zrotation Yrotation Xrotation
											JOINT LeftHandThumb3
											{
												OFFSET -0.000000 3.756509 0.000000
												CHANNELS 3 Zrotation Yrotation Xrotation
												JOINT LeftHandThumb4
												{
													OFFSET -0.000000 3.100000 0.000000
													CHANNELS 3 Zrotation Yrotation Xrotation
													End Site
													{
														OFFSET 0.000000 0.000000 0.000000
													}
												}
											}
										}
									}
									JOINT LeftHandIndex1
									{
										OFFSET 0.086752 10.030893 2.345280
										CHANNELS 3 Zrotation Yrotation Xrotation
										JOINT LeftHandIndex2
										{
											OFFSET -0.000000 4.061090 -0.000000
											CHANNELS 3 Zrotation Yrotation Xrotation
											JOINT LeftHandIndex3
											{
												OFFSET 0.000000 3.248873 -0.000000
												CHANNELS 3 Zrotation Yrotation Xrotation
												JOINT LeftHandIndex4
												{
													OFFSET 0.000000 2.639709 -0.000000
													CHANNELS 3 Zrotation Yrotation Xrotation
													End Site
													{
														OFFSET 0.000000 0.000000 0.000000
													}
												}
											}
										}
									}
									JOINT LeftHandMiddle1
									{
										OFFSET -0.104102 9.502952 0.006768
										CHANNELS 3 Zrotation Yrotation Xrotation
										JOINT LeftHandMiddle2
										{
											OFFSET -0.000000 4.568727 -0.000000
											CHANNELS 3 Zrotation Yrotation Xrotation
											JOINT LeftHandMiddle3
											{
												OFFSET 0.000000 3.654981 0.000000
												CHANNELS 3 Zrotation Yrotation Xrotation
												JOINT LeftHandMiddle4
												{
													OFFSET 0.000000 2.741236 -0.000000
													CHANNELS 3 Zrotation Yrotation Xrotation
													End Site
													{
														OFFSET 0.000000 0.000000 0.000000
													}
												}
											}
										}
									}
									JOINT LeftHandRing1
									{
										OFFSET -0.086752 8.921708 -2.267442
										CHANNELS 3 Zrotation Yrotation Xrotation
										JOINT LeftHandRing2
										{
											OFFSET 0.000000 4.061090 0.000000
											CHANNELS 3 Zrotation Yrotation Xrotation
											JOINT LeftHandRing3
											{
												OFFSET 0.000000 3.654981 0.000000
												CHANNELS 3 Zrotation Yrotation Xrotation
												JOINT LeftHandRing4
												{
													OFFSET 0.000000 2.741236 0.000000
													CHANNELS 3 Zrotation Yrotation Xrotation
													End Site
													{
														OFFSET 0.000000 0.000000 0.000000
													}
												}
											}
										}
									}
									JOINT LeftHandPinky1
									{
										OFFSET 0.173504 7.976997 -4.467199
										CHANNELS 3 Zrotation Yrotation Xrotation
										JOINT LeftHandPinky2
										{
											OFFSET -0.000000 3.350399 -0.000000
											CHANNELS 3 Zrotation Yrotation Xrotation
											JOINT LeftHandPinky3
											{
												OFFSET 0.000000 2.842763 0.000000
												CHANNELS 3 Zrotation Yrotation Xrotation
												JOINT LeftHandPinky4
												{
													OFFSET -0.000000 2.639709 -0.000000
													CHANNELS 3 Zrotation Yrotation Xrotation
													End Site
													{
														OFFSET 0.000000 0.000000 0.000000
													}
												}
											}
										}
									}
									JOINT LeftForeArmEnd
									{
										OFFSET 0.000000 0.000000 0.000000
										CHANNELS 3 Zrotation Yrotation Xrotation
										End Site
										{
											OFFSET 0.000000 0.000000 0.000000
										}
									}
								}
								JOINT LeftArmEnd
								{
									OFFSET 0.000000 0.000000 0.000000
									CHANNELS 3 Zrotation Yrotation Xrotation
									End Site
									{
										OFFSET 0.000000 0.000000 0.000000
									}
								}
							}
						}
					}
				}
			}
		}
	}
	JOINT RightUpLeg
	{
		OFFSET -11.289943 0.000000 0.000000
		CHANNELS 3 Zrotation Yrotation Xrotation
		JOINT RightLeg
		{
			OFFSET 0.000000 -38.200325 0.000000
			CHANNELS 3 Zrotation Yrotation Xrotation
			JOINT RightFoot
			{
				OFFSET -0.000000 -39.900856 -0.000000
				CHANNELS 3 Zrotation Yrotation Xrotation
				JOINT RightToeBase
				{
					OFFSET 0.000000 0.000000 15.261641
					CHANNELS 3 Zrotation Yrotation Xrotation
					JOINT RightToeBaseEnd
					{
						OFFSET 0.000000 0.000000 7.370709
						CHANNELS 3 Zrotation Yrotation Xrotation
						End Site
						{
							OFFSET 0.000000 0.000000 0.000000
						}
					}
				}
				JOINT RightLegEnd
				{
					OFFSET 0.000000 0.000000 0.000000
					CHANNELS 3 Zrotation Yrotation Xrotation
					End Site
					{
						OFFSET 0.000000 0.000000 0.000000
					}
				}
			}
			JOINT RightUpLegEnd
			{
				OFFSET 0.000000 0.000000 0.000000
				CHANNELS 3 Zrotation Yrotation Xrotation
				End Site
				{
					OFFSET 0.000000 0.000000 0.000000
				}
			}
		}
	}
	JOINT LeftUpLeg
	{
		OFFSET 11.315661 -0.000000 0.000000
		CHANNELS 3 Zrotation Yrotation Xrotation
		JOINT LeftLeg
		{
			OFFSET -0.000000 -38.200325 -0.000000
			CHANNELS 3 Zrotation Yrotation Xrotation
			JOINT LeftFoot
			{
				OFFSET 0.000000 -39.900856 -0.000000
				CHANNELS 3 Zrotation Yrotation Xrotation
				JOINT LeftToeBase
				{
					OFFSET -0.000000 -0.000000 15.261641
					CHANNELS 3 Zrotation Yrotation Xrotation
					JOINT LeftToeBaseEnd
					{
						OFFSET 0.000000 -0.000000 7.539996
						CHANNELS 3 Zrotation Yrotation Xrotation
						End Site
						{
							OFFSET 0.000000 0.000000 0.000000
						}
					}
				}
				JOINT LeftLegEnd
				{
					OFFSET 0.000000 0.000000 0.000000
					CHANNELS 3 Zrotation Yrotation Xrotation
					End Site
					{
						OFFSET 0.000000 0.000000 0.000000
					}
				}
			}
			JOINT LeftUpLegEnd
			{
				OFFSET 0.000000 0.000000 0.000000
				CHANNELS 3 Zrotation Yrotation Xrotation
				End Site
				{
					OFFSET 0.000000 0.000000 0.000000
				}
			}
		}
	}
}
MOTION
Frames: 4
Frame Time: 0.016667
0.458804 88.721092 4.569796 0.092229 -1.319108 -10.460637 1.039347 0.032981 7.295823 -0.830521 0.074510 2.270080 0.011558 -0.603627 4.379851 -1.166001 0.048178 3.666957 0.986427 1.357852 4.070179 0.432617 1.697023 -3.251882 -0.466741 -0.807114 -19.290922 0.000000 0.000000 0.000000 91.915146 -0.174392 10.365162 67.300209 -30.280146 3.764816 -0.019922 15.088025 27.964432 4.378323 7.351186 -7.103647 20.298317 29.969994 61.647179 -8.860260 -12.998162 -21.792782 -6.634739 -8.597171 -15.089523 0.000000 0.000000 0.000000 15.411059 -11.337512 1.042948 11.677194 0.306516 1.443189 11.422754 -0.111797 1.392816 0.000000 0.000000 0.000000 14.206535 -5.837448 -0.127575 10.299134 0.426256 0.559389 10.722844 -0.057844 0.479842 0.000000 0.000000 0.000000 13.954879 1.990079 -0.298269 10.440124 -0.871442 -0.828456 10.423689 0.070657 -0.594066 0.000000 0.000000 0.000000 12.142537 10.547346 -1.499168 9.694887 -1.606648 -2.365065 9.486612 0.266974 -1.996138 0.000000 0.000000 0.000000 0.000000 0.000000 0.000000 0.000000 0.000000 0.000000 -89.100594 -0.101826 5.964500 -73.443604 17.889145 -6.861313 -0.951674 -10.716363 48.950359 -1.759838 -16.513205 -14.966583 -20.023359 -30.064196 61.831573 8.685917 12.461293 -21.024860 6.444753 8.364365 -14.793683 0.000000 0.000000 0.000000 -16.848917 -5.694735 1.765981 -11.096712 0.370864 -1.024737 -10.875813 -0.079497 -1.003244 0.000000 0.000000 0.000000 -16.015940 -0.684526 0.162627 -10.770451 0.440334 -0.450046 -10.934181 -0.042798 -0.377853 0.000000 0.000000 0.000000 -18.202532 7.321804 -1.060231 -12.259969 -0.910132 0.746836 -12.109732 0.051395 0.585804 0.000000 0.000000 0.000000 -20.040529 15.786723 -3.213620 -13.027111 -1.673934 2.356193 -12.752293 0.274510 2.129473 0.000000 0.000000 0.000000 0.000000 0.000000 0.000000 0.000000 0.000000 0.000000 -1.488164 -9.689291 14.989654 -0.069474 -0.676581 5.153684 -2.343311 -7.647435 17.342186 -0.900829 0.850029 -18.554398 0.000000 0.000000 0.000000 0.000000 0.000000 0.000000 0.000000 0.000000 0.000000 -1.706419 -5.975820 9.343169 0.064753 0.347126 10.551890 3.891409 -0.731949 17.011307 0.260346 -0.428078 -21.150681 0.000000 0.000000 0.000000 0.000000 0.000000 0.000000 0.000000 0.000000 0.000000 
0.468497 88.723602 4.581261 0.109905 -1.292858 -10.499823 1.037138 0.039885 7.285788 -0.824547 0.079921 2.269514 0.001896 -0.555566 4.384553 -1.187197 0.067647 3.697182 1.044464 1.317858 4.106597 0.420260 1.645145 -3.242877 -0.465194 -0.802152 -19.333193 0.000000 0.000000 0.000000 91.851860 -0.155154 10.351377 67.361313 -30.268700 3.726904 -0.024164 15.173511 28.259680 4.367745 7.342909 -7.072085 20.288595 29.974243 61.652199 -8.846172 -12.989046 -21.771467 -6.626071 -8.586352 -15.067901 0.000000 0.000000 0.000000 15.408947 -11.350015 1.188676 11.722043 0.299908 1.468468 11.470858 -0.117980 1.415814 0.000000 0.000000 0.000000 14.208929 -5.843626 -0.036426 10.348099 0.423347 0.568082 10.775377 -0.060385 0.487328 0.000000 0.000000 0.000000 13.974919 1.989152 -0.271156 10.483342 -0.866947 -0.841749 10.471175 0.073752 -0.603887 0.000000 0.000000 0.000000 12.172434 10.550742 -1.537776 9.737477 -1.595343 -2.401914 9.534932 0.277128 -2.024120 0.000000 0.000000 0.000000 0.000000 0.000000 0.000000 0.000000 0.000000 0.000000 -89.009895 -0.101433 5.930081 -73.546143 17.580400 -6.979473 -0.940155 -10.907598 49.239162 -1.920591 -16.556700 -14.840996 -20.029768 -30.064981 61.828884 8.682351 12.476989 -21.040403 6.444233 8.372869 -14.802416 0.000000 0.000000 0.000000 -16.932722 -5.691240 1.863685 -11.183955 0.370149 -1.024817 -10.960910 -0.081209 -1.005275 0.000000 0.000000 0.000000 -16.122869 -0.669695 0.237159 -10.862545 0.439960 -0.451850 -11.030279 -0.043535 -0.378679 0.000000 0.000000 0.000000 -18.327179 7.344687 -1.044388 -12.359707 -0.908696 0.749883 -12.217139 0.052663 0.588176 0.000000 0.000000 0.000000 -20.169975 15.812370 -3.253709 -13.124913 -1.668260 2.372674 -12.852470 0.280648 2.141248 0.000000 0.000000 0.000000 0.000000 0.000000 0.000000 0.000000 0.000000 0.000000 -1.544486 -9.689219 15.010392 -0.071096 -0.680444 5.155544 -2.319773 -7.660705 17.373091 -0.908792 0.850195 -18.564724 0.000000 0.000000 0.000000 0.000000 0.000000 0.000000 0.000000 0.000000 0.000000 -1.728492 -5.981175 9.352889 0.065381 0.347065 10.621289 3.911487 -0.731041 17.012495 0.254012 -0.425060 -21.160200 0.000000 0.000000 0.000000 0.000000 0.000000 0.000000 0.000000 0.000000 0.000000 
0.476962 88.726120 4.589679 0.125925 -1.263619 -10.535641 1.035257 0.047350 7.277172 -0.820222 0.087277 2.271578 -0.003258 -0.507921 4.385811 -1.206892 0.087987 3.730238 1.097625 1.274747 4.142621 0.407721 1.589459 -3.229445 -0.461842 -0.799130 -19.369614 0.000000 0.000000 0.000000 91.791351 -0.133965 10.338682 67.424622 -30.210556 3.688661 -0.026626 15.272506 28.590227 4.290620 7.356354 -7.018751 20.277197 29.978525 61.658722 -8.832239 -12.976449 -21.746136 -6.616807 -8.572947 -15.044333 0.000000 0.000000 0.000000 15.398786 -11.359969 1.332913 11.754072 0.294543 1.489600 11.505727 -0.122890 1.435309 0.000000 0.000000 0.000000 14.204303 -5.848742 0.051781 10.384715 0.420976 0.574887 10.816132 -0.062357 0.493418 0.000000 0.000000 0.000000 13.991921 1.989343 -0.250612 10.520185 -0.863279 -0.852352 10.510947 0.076238 -0.611724 0.000000 0.000000 0.000000 12.196919 10.557575 -1.584763 9.777265 -1.586204 -2.431500 9.580921 0.285741 -2.046184 0.000000 0.000000 0.000000 0.000000 0.000000 0.000000 0.000000 0.000000 0.000000 -88.916672 -0.103084 5.895110 -73.627869 17.251789 -7.107846 -0.923312 -11.138965 49.625282 -2.068205 -16.576973 -14.715506 -20.027504 -30.068247 61.834293 8.671220 12.476918 -21.031479 6.437294 8.370798 -14.793774 0.000000 0.000000 0.000000 -16.969528 -5.697117 1.996281 -11.257031 0.371349 -1.016789 -11.033267 -0.081112 -0.999863 0.000000 0.000000 0.000000 -16.192633 -0.661735 0.335283 -10.944313 0.440241 -0.450765 -11.116444 -0.043634 -0.377085 0.000000 0.000000 0.000000 -18.434856 7.366510 -1.024004 -12.461390 -0.908085 0.749637 -12.327775 0.053326 0.588255 0.000000 0.000000 0.000000 -20.306812 15.842739 -3.306765 -13.237156 -1.664537 2.382981 -12.966753 0.285379 2.147639 0.000000 0.000000 0.000000 0.000000 0.000000 0.000000 0.000000 0.000000 0.000000 -1.597420 -9.691089 15.024906 -0.072692 -0.684092 5.158311 -2.298594 -7.669522 17.402529 -0.916286 0.851033 -18.576332 0.000000 0.000000 0.000000 0.000000 0.000000 0.000000 0.000000 0.000000 0.000000 -1.745470 -5.982906 9.358157 0.066114 0.346965 10.690962 3.931023 -0.733535 17.017477 0.247507 -0.421873 -21.170477 0.000000 0.000000 0.000000 0.000000 0.000000 0.000000 0.000000 0.000000 0.000000 
0.483598 88.728317 4.594460 0.139709 -1.234059 -10.566599 1.033711 0.054926 7.270259 -0.817678 0.095911 2.276896 -0.004067 -0.462361 4.381704 -1.225628 0.108834 3.766070 1.143293 1.225841 4.182302 0.394431 1.526534 -3.209289 -0.456214 -0.798115 -19.398460 0.000000 0.000000 0.000000 91.733665 -0.110797 10.327842 67.480125 -30.120918 3.659648 -0.027565 15.375878 28.937260 4.151744 7.410342 -6.943155 20.265194 29.982592 61.665936 -8.819567 -12.962484 -21.719641 -6.607984 -8.558737 -15.021368 0.000000 0.000000 0.000000 15.383277 -11.368249 1.475806 11.770765 0.290714 1.506969 11.524471 -0.126316 1.451653 0.000000 0.000000 0.000000 14.196424 -5.853477 0.139144 10.406675 0.419249 0.579974 10.842438 -0.063692 0.498259 0.000000 0.000000 0.000000 14.013734 1.989508 -0.231930 10.549380 -0.860628 -0.860320 10.541194 0.078016 -0.617719 0.000000 0.000000 0.000000 12.226538 10.565844 -1.633185 9.814392 -1.579830 -2.454437 9.623977 0.292414 -2.062800 0.000000 0.000000 0.000000 0.000000 0.000000 0.000000 0.000000 0.000000 0.000000 -88.822891 -0.106980 5.861004 -73.682938 16.931126 -7.238063 -0.902664 -11.393224 50.073788 -2.192678 -16.586914 -14.593540 -20.015257 -30.074299 61.849571 8.651457 12.457507 -20.993444 6.422790 8.355497 -14.764819 0.000000 0.000000 0.000000 -16.945904 -5.714661 2.165499 -11.307323 0.374402 -1.001946 -11.084451 -0.079254 -0.988127 0.000000 0.000000 0.000000 -16.212292 -0.662800 0.459538 -11.005426 0.441173 -0.447197 -11.182492 -0.043104 -0.373475 0.000000 0.000000 0.000000 -18.511164 7.384678 -0.992826 -12.552116 -0.908313 0.746933 -12.427599 0.053367 0.586616 0.000000 0.000000 0.000000 -20.436676 15.874668 -3.363959 -13.349657 -1.663011 2.388930 -13.080562 0.288484 2.150070 0.000000 0.000000 0.000000 0.000000 0.000000 0.000000 0.000000 0.000000 0.000000 -1.644095 -9.694057 15.034270 -0.074189 -0.687211 5.160316 -2.281362 -7.677483 17.431047 -0.922597 0.852250 -18.589333 0.000000 0.000000 0.000000 0.000000 0.000000 0.000000 0.000000 0.000000 0.000000 -1.756842 -5.981710 9.358438 0.066902 0.346752 10.758922 3.949450 -0.739398 17.026854 0.240901 -0.418524 -21.182495 0.000000 0.000000 0.000000 0.000000 0.000000 0.000000 0.000000 0.000000 0.000000 
